<svg width="38" height="29" viewBox="0 0 38 29" fill="none" xmlns="http://www.w3.org/2000/svg">
<path d="M36.5486 28.6038V28.6784H36.6181C36.6311 28.6786 36.644 28.6753 36.6554 28.6688C36.6599 28.6656 36.6635 28.6614 36.666 28.6564C36.6684 28.6514 36.6696 28.6459 36.6693 28.6403C36.6696 28.6349 36.6684 28.6295 36.666 28.6246C36.6635 28.6198 36.6599 28.6156 36.6554 28.6126C36.6441 28.6058 36.6312 28.6025 36.6181 28.6031H36.5486V28.6038ZM36.6188 28.5511C36.6486 28.5492 36.6781 28.5578 36.7023 28.5753C36.712 28.5832 36.7197 28.5933 36.7248 28.6048C36.7299 28.6163 36.7322 28.6287 36.7316 28.6413C36.732 28.652 36.7302 28.6628 36.7261 28.6728C36.7221 28.6828 36.7159 28.6918 36.7081 28.6992C36.6895 28.7154 36.666 28.7252 36.6414 28.727L36.7346 28.8332H36.6628L36.5771 28.7277H36.5493V28.8332H36.4893V28.5513H36.6198L36.6188 28.5511ZM36.6002 28.9305C36.6317 28.9308 36.6629 28.9244 36.6917 28.9119C36.7195 28.8999 36.7448 28.8827 36.7663 28.8613C36.7878 28.84 36.8049 28.8147 36.8168 28.7868C36.8412 28.7277 36.8412 28.6614 36.8168 28.6023C36.8047 28.5745 36.7876 28.5493 36.7663 28.5278C36.7448 28.5064 36.7195 28.4893 36.6917 28.4773C36.6627 28.4654 36.6316 28.4594 36.6002 28.4598C36.5683 28.4595 36.5366 28.4654 36.507 28.4773C36.4785 28.489 36.4527 28.5062 36.4307 28.5278C36.3978 28.5616 36.3755 28.6044 36.3666 28.6507C36.3578 28.6971 36.3628 28.7451 36.381 28.7887C36.3923 28.8166 36.4093 28.842 36.4307 28.8632C36.4527 28.8848 36.4786 28.9019 36.507 28.9137C36.5364 28.9263 36.5682 28.9326 36.6002 28.9324V28.9305ZM36.6002 28.3919C36.6821 28.3918 36.7608 28.424 36.8192 28.4814C36.8474 28.5089 36.8698 28.5418 36.8852 28.5781C36.9011 28.6153 36.9093 28.6554 36.9093 28.696C36.9093 28.7365 36.9011 28.7766 36.8852 28.8138C36.8695 28.8499 36.8471 28.8827 36.8192 28.9105C36.7906 28.938 36.7573 28.96 36.721 28.9758C36.6828 28.992 36.6417 29.0002 36.6002 29C36.5582 29.0003 36.5166 28.9921 36.4779 28.9758C36.4411 28.9604 36.4075 28.9383 36.3789 28.9105C36.3511 28.8817 36.329 28.8478 36.3139 28.8107C36.2979 28.7734 36.2897 28.7333 36.2897 28.6928C36.2897 28.6523 36.2979 28.6122 36.3139 28.5749C36.3293 28.5386 36.3517 28.5058 36.3799 28.4782C36.4081 28.45 36.4418 28.4278 36.4788 28.413C36.5175 28.3967 36.5591 28.3885 36.6011 28.3888L36.6002 28.3919ZM8.05776 27.3031C8.05776 26.7654 8.41007 26.3238 8.98588 26.3238C9.53614 26.3238 9.90746 26.7464 9.90746 27.3031C9.90746 27.8597 9.53614 28.2824 8.98588 28.2824C8.41007 28.2824 8.05776 27.8407 8.05776 27.3031ZM10.5347 27.3031V25.7731H9.86944V26.1458C9.65843 25.8704 9.33837 25.6976 8.90311 25.6976C8.04565 25.6976 7.37272 26.37 7.37272 27.3038C7.37272 28.2376 8.04527 28.91 8.90311 28.91C9.33818 28.91 9.65843 28.7371 9.86944 28.4618V28.8332H10.534V27.3031H10.5347ZM33.0137 27.3031C33.0137 26.7654 33.366 26.3238 33.942 26.3238C34.4929 26.3238 34.8636 26.7464 34.8636 27.3031C34.8636 27.8597 34.4929 28.2824 33.942 28.2824C33.3662 28.2824 33.0137 27.8407 33.0137 27.3031ZM35.4914 27.3031V24.545H34.8256V26.1458C34.6146 25.8704 34.2945 25.6976 33.8593 25.6976C33.0018 25.6976 32.3289 26.37 32.3289 27.3038C32.3289 28.2376 33.0014 28.91 33.8593 28.91C34.2945 28.91 34.6146 28.7371 34.8256 28.4618V28.8332H35.4914V27.3031ZM18.7917 26.2923C19.2205 26.2923 19.4958 26.561 19.5661 27.0342H17.9786C18.0497 26.5925 18.3179 26.2923 18.7919 26.2923H18.7917ZM18.8052 25.696C17.9086 25.696 17.2813 26.3482 17.2813 27.3021C17.2813 28.2747 17.9337 28.9083 18.8497 28.9083C19.3105 28.9083 19.7325 28.7933 20.1039 28.4797L19.7778 27.9868C19.5213 28.1918 19.1948 28.3068 18.8877 28.3068C18.459 28.3068 18.0687 28.1083 17.9727 27.5576H20.2444C20.2509 27.4749 20.2576 27.3914 20.2576 27.3019C20.2509 26.3484 19.6611 25.6958 18.8048 25.6958L18.8052 25.696ZM26.837 27.3019C26.837 26.7643 27.1893 26.3227 27.7651 26.3227C28.3154 26.3227 28.6867 26.7453 28.6867 27.3019C28.6867 27.8586 28.3154 28.2812 27.7651 28.2812C27.1893 28.2812 26.8368 27.8396 26.8368 27.3019H26.837ZM29.3138 27.3019V25.7731H28.6489V26.1458C28.4371 25.8704 28.1178 25.6976 27.6825 25.6976C26.8251 25.6976 26.1522 26.37 26.1522 27.3038C26.1522 28.2376 26.8247 28.91 27.6825 28.91C28.1178 28.91 28.4371 28.7371 28.6489 28.4618V28.8332H29.314V27.3031L29.3138 27.3019ZM23.08 27.3019C23.08 28.2298 23.7261 28.9081 24.7122 28.9081C25.173 28.9081 25.48 28.8056 25.812 28.5434L25.4925 28.0058C25.2427 28.1853 24.9804 28.2812 24.6909 28.2812C24.1598 28.2747 23.7693 27.8908 23.7693 27.3019C23.7693 26.7131 24.1598 26.3294 24.6909 26.3227C24.9797 26.3227 25.2419 26.4186 25.4925 26.5981L25.812 26.0605C25.4794 25.7983 25.1724 25.6958 24.7122 25.6958C23.7261 25.6958 23.08 26.3739 23.08 27.3019ZM31.6565 25.6958C31.2727 25.6958 31.0227 25.8752 30.8499 26.144V25.7731H30.1906V28.8315H30.8567V27.1171C30.8567 26.611 31.0742 26.3297 31.5091 26.3297C31.6515 26.3277 31.7929 26.3538 31.9251 26.4067L32.1302 25.7798C31.9829 25.7219 31.7909 25.6963 31.6562 25.6963L31.6565 25.6958ZM13.8238 26.0163C13.5038 25.8053 13.0628 25.6963 12.5762 25.6963C11.8012 25.6963 11.3022 26.0677 11.3022 26.6754C11.3022 27.1741 11.6737 27.4818 12.3578 27.5778L12.672 27.6225C13.0368 27.6737 13.2091 27.7697 13.2091 27.9424C13.2091 28.1789 12.9668 28.3138 12.5117 28.3138C12.0509 28.3138 11.7184 28.1666 11.4941 27.9939L11.1815 28.5125C11.5463 28.7812 12.0071 28.9094 12.5061 28.9094C13.3897 28.9094 13.9018 28.4935 13.9018 27.9111C13.9018 27.3735 13.4988 27.0923 12.8329 26.9963L12.5194 26.9509C12.2314 26.9136 12.0006 26.8556 12.0006 26.6506C12.0006 26.427 12.2181 26.2925 12.5831 26.2925C12.9736 26.2925 13.3517 26.4397 13.537 26.5547L13.825 26.017L13.8238 26.0163ZM22.408 25.6969C22.0242 25.6969 21.7742 25.8763 21.6022 26.1451V25.7731H20.9429V28.8315H21.6081V27.1171C21.6081 26.611 21.8257 26.3297 22.2606 26.3297C22.403 26.3277 22.5444 26.3538 22.6766 26.4067L22.8817 25.7798C22.7344 25.7219 22.5424 25.6963 22.4076 25.6963L22.408 25.6969ZM16.7308 25.7731H15.643V24.8453H14.9704V25.7731H14.3499V26.381H14.9704V27.7762C14.9704 28.4858 15.2459 28.9085 16.0329 28.9085C16.3217 28.9085 16.6542 28.819 16.8652 28.672L16.6731 28.1025C16.4745 28.2175 16.257 28.2755 16.084 28.2755C15.7515 28.2755 15.643 28.0705 15.643 27.7635V26.3816H16.7308V25.7731ZM6.78443 28.8323V26.9128C6.78443 26.19 6.32363 25.7036 5.5808 25.6971C5.19028 25.6906 4.78746 25.8121 4.50543 26.2412C4.29442 25.9021 3.96187 25.6971 3.49437 25.6971C3.1676 25.6971 2.84828 25.7931 2.59831 26.1512V25.7731H1.93247V28.8315H2.60353V27.1357C2.60353 26.6048 2.89806 26.3227 3.35288 26.3227C3.79467 26.3227 4.01817 26.6106 4.01817 27.129V28.8312H4.69072V27.1353C4.69072 26.6044 4.99773 26.3223 5.43932 26.3223C5.89359 26.3223 6.11038 26.6102 6.11038 27.1286V28.8308L6.78443 28.8323Z" fill="white"/>
<path d="M36.9266 18.6585V18.2113H36.8101L36.6753 18.5182L36.5413 18.2113H36.4244V18.6585H36.5072V18.3216L36.6332 18.6123H36.719L36.845 18.3209V18.6585H36.927H36.9266ZM36.1875 18.6585V18.2879H36.3366V18.2124H35.9556V18.2879H36.1048V18.6585H36.1868H36.1875Z" fill="#F79410"/>
<path d="M23.6834 20.5767H13.6015V2.46326H23.6836L23.6834 20.5767Z" fill="#FF5F00"/>
<path d="M14.2414 11.5198C14.2414 7.84545 15.9623 4.57235 18.642 2.46303C16.6136 0.86403 14.1047 -0.00380321 11.5215 1.25293e-05C5.15822 1.25293e-05 0 5.1575 0 11.5198C0 17.882 5.15822 23.0395 11.5215 23.0395C14.1048 23.0434 16.6137 22.1755 18.6422 20.5765C15.9627 18.4675 14.2414 15.1943 14.2414 11.5198Z" fill="#EB001B"/>
<path d="M37.2866 11.5204C37.2866 17.8826 32.1284 23.0401 25.765 23.0401C23.1815 23.0439 20.6723 22.1761 18.6434 20.5771C21.3239 18.4678 23.0448 15.1949 23.0448 11.5204C23.0448 7.84587 21.3239 4.57296 18.6434 2.46364C20.6722 0.864688 23.1814 -0.00312598 25.7649 0.000622444C32.1282 0.000622444 37.2864 5.15811 37.2864 11.5204" fill="#F79E1B"/>
</svg>
